<?xml version="1.0" encoding="utf-8"?>
<!-- Generator: Adobe Illustrator 24.0.0, SVG Export Plug-In . SVG Version: 6.00 Build 0)  -->
<svg version="1.1" xmlns="http://www.w3.org/2000/svg" xmlns:xlink="http://www.w3.org/1999/xlink" x="0px" y="0px"
	 viewBox="0 0 64 64" enable-background="new 0 0 64 64" xml:space="preserve">
<g id="Captions">
</g>
<g id="Icons">
	<g>
		<g>
			<path fill="#FA6450" d="M42,52c0-5.122,3.872-9.35,8.841-9.927C51.597,39.627,52,37.046,52,34.397V14h-6.667
				c-3.462,0-6.83-1.123-9.6-3.2L32,8l-3.734,2.8c-2.77,2.077-6.138,3.2-9.6,3.2H12v20.397c0,10.632,6.473,20.192,16.344,24.141
				L32,60l3.656-1.463c2.461-0.984,4.71-2.318,6.701-3.93C42.131,53.775,42,52.903,42,52z"/>
		</g>
		<g>
			<path fill="#DC4632" d="M16,34.397V14h-4v20.397c0,10.631,6.473,20.192,16.344,24.14L32,60l2-0.8l-1.656-0.663
				C22.473,54.589,16,45.029,16,34.397z"/>
		</g>
		<g>
			<path fill="#F0F0F0" d="M30.244,23.219l-8.631,15.823C20.886,40.375,21.851,42,23.369,42h17.262c1.518,0,2.483-1.625,1.756-2.958
				l-8.631-15.823C32.998,21.829,31.002,21.829,30.244,23.219z"/>
		</g>
		<g>
			<path fill="#FA6450" d="M32,34L32,34c-0.552,0-1-0.448-1-1v-4c0-0.552,0.448-1,1-1h0c0.552,0,1,0.448,1,1v4
				C33,33.552,32.552,34,32,34z"/>
		</g>
		<g>
			<path fill="#FA6450" d="M32,38L32,38c-0.552,0-1-0.448-1-1l0,0c0-0.552,0.448-1,1-1h0c0.552,0,1,0.448,1,1l0,0
				C33,37.552,32.552,38,32,38z"/>
		</g>
		<g>
			<circle fill="#3CC8B4" cx="52" cy="52" r="8"/>
		</g>
		<g>
			<path fill="#1EAA96" d="M45.983,52c0-4.082,3.059-7.443,7.009-7.932C52.666,44.027,52.336,44,52,44c-4.418,0-8,3.582-8,8
				s3.582,8,8,8c0.336,0,0.666-0.027,0.991-0.068C49.042,59.443,45.983,56.082,45.983,52z"/>
		</g>
		<g>
			<polygon fill="#F0F0F0" points="57,50 51,56 47,52 49,50 51,52 55,48 			"/>
		</g>
	</g>
</g>
</svg>
